<?xml version="1.0" standalone="no"?><!DOCTYPE svg PUBLIC "-//W3C//DTD SVG 1.1//EN" "http://www.w3.org/Graphics/SVG/1.1/DTD/svg11.dtd"><svg class="icon" width="200px" height="200.00px" viewBox="0 0 1024 1024" version="1.1" xmlns="http://www.w3.org/2000/svg"><path d="M224 224.448h89.6c9.6 0 19.2 9.6 19.2 19.2v6.4h-128v-6.4c0-9.6 9.6-19.2 19.2-19.2M102.4 733.248V368.448C102.4 323.648 137.6 288.448 182.4 288.448h592l54.4-35.2c-6.4 0-12.8-3.2-19.2-3.2H371.2v-6.4c0-32-25.6-57.6-57.6-57.6H224c-32 0-57.6 25.6-57.6 57.6v6.4C108.8 259.648 64 307.648 64 368.448V736.448c0 12.8 3.2 25.6 6.4 35.2l32-22.4v-16" fill="#ffffff" /><path d="M883.2 736c0 44.8-35.2 80-80 80H182.4c-9.6 0-19.2-3.2-28.8-6.4L352 672c35.2 41.6 83.2 67.2 140.8 67.2 102.4 0 185.6-83.2 185.6-185.6 0-32-9.6-60.8-22.4-89.6l211.2-144c9.6 12.8 16 28.8 16 48V736zM640 550.4c0 80-67.2 147.2-147.2 147.2-44.8 0-83.2-19.2-108.8-48l240-163.2c9.6 19.2 16 41.6 16 64z m-550.4 256c22.4 28.8 54.4 48 92.8 48h624c64 0 118.4-51.2 118.4-118.4V368c0-41.6-22.4-76.8-54.4-99.2L89.6 806.4zM492.8 403.2c28.8 0 57.6 9.6 80 22.4l35.2-22.4c-32-25.6-70.4-38.4-112-38.4-102.4 0-185.6 83.2-185.6 185.6 0 19.2 3.2 35.2 6.4 54.4l35.2-22.4c-3.2-9.6-3.2-19.2-3.2-28.8-3.2-83.2 64-150.4 144-150.4" fill="#ffffff" /></svg>